<svg width="20" height="20" viewBox="0 0 20 20" fill="none" xmlns="http://www.w3.org/2000/svg">
<g clip-path="url(#clip0_122_1393)">
<path d="M17.8494 1.87723C15.3464 -0.625702 11.2883 -0.625702 8.78537 1.87723C6.79877 3.86383 6.38924 6.83004 7.55623 9.22086L5.77142 11.0057C5.75818 11.0189 5.74771 11.0347 5.74066 11.0521C5.7336 11.0695 5.73009 11.0881 5.73033 11.1068L5.74607 12.2222C5.74632 12.2409 5.74281 12.2596 5.73575 12.2769C5.72869 12.2943 5.71823 12.3101 5.70498 12.3234L4.77221 13.2561C4.75585 13.2725 4.73571 13.2846 4.71356 13.2912C4.69142 13.2979 4.66797 13.299 4.64529 13.2945L3.75123 13.1144C3.72855 13.1098 3.70511 13.111 3.68297 13.1176C3.66084 13.1243 3.64069 13.1364 3.62432 13.1527L2.63451 14.1426C2.60998 14.1672 2.59541 14.2 2.59361 14.2346L2.53666 15.3545C2.53571 15.3733 2.531 15.3917 2.52281 15.4086C2.51462 15.4255 2.50311 15.4406 2.48897 15.453C2.47482 15.4653 2.45834 15.4747 2.44049 15.4806C2.42264 15.4865 2.40379 15.4887 2.38506 15.4872L1.43795 15.4092C1.41765 15.4075 1.39724 15.4103 1.37812 15.4173C1.359 15.4243 1.34164 15.4354 1.32725 15.4498L0.465917 16.3112C0.452883 16.3242 0.442544 16.3397 0.43549 16.3567C0.428436 16.3737 0.424805 16.3919 0.424805 16.4104C0.424805 16.4288 0.428436 16.447 0.43549 16.4641C0.442544 16.4811 0.452883 16.4965 0.465917 16.5096L0.893183 16.9368C0.906216 16.9498 0.916555 16.9653 0.92361 16.9823C0.930664 16.9993 0.934295 17.0176 0.934295 17.036C0.934295 17.0544 0.930664 17.0727 0.92361 17.0897C0.916555 17.1067 0.906216 17.1222 0.893183 17.1352L0.56744 17.4609C0.541958 17.4865 0.52726 17.5208 0.526386 17.5569L0.48162 19.4768C0.481199 19.4958 0.484619 19.5146 0.491674 19.5322C0.49873 19.5498 0.509275 19.5658 0.522675 19.5793L0.827089 19.8837C0.855214 19.9118 0.893925 19.9266 0.933612 19.9246L2.79771 19.8273C2.83233 19.8255 2.86505 19.8109 2.88959 19.7864L10.5057 12.1703C12.8965 13.3373 15.8628 12.9277 17.8494 10.9411C20.3523 8.43824 20.3523 4.38016 17.8494 1.87723ZM16.9192 4.86309C16.3515 5.43074 15.4312 5.43074 14.8635 4.86309C14.2958 4.29543 14.2958 3.37504 14.8635 2.80738C15.4312 2.23973 16.3515 2.23973 16.9192 2.80738C17.4869 3.37504 17.4869 4.29543 16.9192 4.86309Z" fill="#FFB636"/>
</g>
<defs>
<clipPath id="clip0_122_1393">
<rect width="20" height="20" fill="white"/>
</clipPath>
</defs>
</svg>
